<mxfile host="Electron" modified="2023-06-24T04:32:32.475Z" agent="Mozilla/5.0 (Windows NT 10.0; Win64; x64) AppleWebKit/537.36 (KHTML, like Gecko) draw.io/21.2.8 Chrome/112.0.5615.165 Electron/24.2.0 Safari/537.36" etag="2tvCeTxV029-xbEqDYya" version="21.2.8" type="device">
  <diagram id="0jzvoz7xoONC1ta8vLtH" name="ページ1">
    <mxGraphModel dx="1418" dy="830" grid="1" gridSize="10" guides="1" tooltips="1" connect="1" arrows="1" fold="1" page="1" pageScale="1" pageWidth="827" pageHeight="1169" math="0" shadow="0">
      <root>
        <mxCell id="0" />
        <mxCell id="1" parent="0" />
        <mxCell id="6nG_dfres4fqL1OyFaTb-1" value="メインモジュール" style="rounded=0;whiteSpace=wrap;html=1;" parent="1" vertex="1">
          <mxGeometry x="250" y="177" width="70" height="513" as="geometry" />
        </mxCell>
        <mxCell id="6nG_dfres4fqL1OyFaTb-2" value="Japanese&lt;br&gt;Canonicalizer&lt;br&gt;ブロック" style="rounded=0;whiteSpace=wrap;html=1;" parent="1" vertex="1">
          <mxGeometry x="591" y="217" width="99" height="60" as="geometry" />
        </mxCell>
        <mxCell id="6nG_dfres4fqL1OyFaTb-3" value="SNIPS &lt;br&gt;Understander&lt;br&gt;ブロック" style="rounded=0;whiteSpace=wrap;html=1;" parent="1" vertex="1">
          <mxGeometry x="591" y="380" width="99" height="60" as="geometry" />
        </mxCell>
        <mxCell id="6nG_dfres4fqL1OyFaTb-4" value="STN Manager&lt;br&gt;ブロック" style="rounded=0;whiteSpace=wrap;html=1;" parent="1" vertex="1">
          <mxGeometry x="591" y="470" width="99" height="190" as="geometry" />
        </mxCell>
        <mxCell id="6nG_dfres4fqL1OyFaTb-5" value="" style="endArrow=classic;html=1;rounded=0;entryX=0;entryY=0.25;entryDx=0;entryDy=0;" parent="1" target="6nG_dfres4fqL1OyFaTb-2" edge="1">
          <mxGeometry width="50" height="50" relative="1" as="geometry">
            <mxPoint x="320" y="232" as="sourcePoint" />
            <mxPoint x="590" y="227" as="targetPoint" />
          </mxGeometry>
        </mxCell>
        <mxCell id="6nG_dfres4fqL1OyFaTb-6" value="" style="endArrow=classic;html=1;rounded=0;exitX=0;exitY=0.75;exitDx=0;exitDy=0;entryX=1.014;entryY=0.166;entryDx=0;entryDy=0;entryPerimeter=0;" parent="1" source="6nG_dfres4fqL1OyFaTb-2" target="6nG_dfres4fqL1OyFaTb-1" edge="1">
          <mxGeometry width="50" height="50" relative="1" as="geometry">
            <mxPoint x="321.03" y="324.17999999999995" as="sourcePoint" />
            <mxPoint x="373" y="324" as="targetPoint" />
          </mxGeometry>
        </mxCell>
        <mxCell id="6nG_dfres4fqL1OyFaTb-7" value="" style="endArrow=classic;html=1;rounded=0;exitX=1.029;exitY=0.178;exitDx=0;exitDy=0;exitPerimeter=0;entryX=0;entryY=0.25;entryDx=0;entryDy=0;" parent="1" target="6nG_dfres4fqL1OyFaTb-3" edge="1">
          <mxGeometry width="50" height="50" relative="1" as="geometry">
            <mxPoint x="321.03" y="395.17999999999995" as="sourcePoint" />
            <mxPoint x="449" y="395" as="targetPoint" />
          </mxGeometry>
        </mxCell>
        <mxCell id="6nG_dfres4fqL1OyFaTb-8" value="" style="endArrow=classic;html=1;rounded=0;exitX=0;exitY=0.75;exitDx=0;exitDy=0;entryX=1;entryY=0.274;entryDx=0;entryDy=0;entryPerimeter=0;" parent="1" source="6nG_dfres4fqL1OyFaTb-3" edge="1">
          <mxGeometry width="50" height="50" relative="1" as="geometry">
            <mxPoint x="449" y="425" as="sourcePoint" />
            <mxPoint x="319" y="424.94000000000005" as="targetPoint" />
          </mxGeometry>
        </mxCell>
        <mxCell id="6nG_dfres4fqL1OyFaTb-9" value="" style="endArrow=classic;html=1;rounded=0;exitX=1.029;exitY=0.178;exitDx=0;exitDy=0;exitPerimeter=0;" parent="1" edge="1">
          <mxGeometry width="50" height="50" relative="1" as="geometry">
            <mxPoint x="321.03" y="488.17999999999995" as="sourcePoint" />
            <mxPoint x="590" y="488" as="targetPoint" />
          </mxGeometry>
        </mxCell>
        <mxCell id="6nG_dfres4fqL1OyFaTb-11" value="" style="endArrow=classic;html=1;rounded=0;entryX=0.014;entryY=0.168;entryDx=0;entryDy=0;exitX=0.5;exitY=0;exitDx=0;exitDy=0;entryPerimeter=0;" parent="1" source="7yFsLuSHQwP80PSkCyWd-15" target="6nG_dfres4fqL1OyFaTb-1" edge="1">
          <mxGeometry width="50" height="50" relative="1" as="geometry">
            <mxPoint x="170" y="207" as="sourcePoint" />
            <mxPoint x="250" y="207" as="targetPoint" />
            <Array as="points">
              <mxPoint x="175" y="264" />
            </Array>
          </mxGeometry>
        </mxCell>
        <mxCell id="6nG_dfres4fqL1OyFaTb-12" value="" style="endArrow=classic;html=1;rounded=0;exitX=0;exitY=0.75;exitDx=0;exitDy=0;entryX=0.5;entryY=1;entryDx=0;entryDy=0;" parent="1" target="7yFsLuSHQwP80PSkCyWd-15" edge="1">
          <mxGeometry width="50" height="50" relative="1" as="geometry">
            <mxPoint x="250" y="546" as="sourcePoint" />
            <mxPoint x="170" y="546" as="targetPoint" />
            <Array as="points">
              <mxPoint x="175" y="546" />
            </Array>
          </mxGeometry>
        </mxCell>
        <mxCell id="W3RRk2SyyBqXtN76rQBY-3" value="システム発話&lt;br&gt;セッションID&lt;br&gt;対話終了フラグ&lt;br&gt;補助データ" style="text;html=1;strokeColor=none;fillColor=none;align=left;verticalAlign=middle;whiteSpace=wrap;rounded=0;" parent="1" vertex="1">
          <mxGeometry x="150" y="576" width="100" height="25" as="geometry" />
        </mxCell>
        <mxCell id="iua9zefK4cCjFermVdLk-1" value="input_text" style="text;html=1;strokeColor=none;fillColor=none;align=center;verticalAlign=middle;whiteSpace=wrap;rounded=0;" parent="1" vertex="1">
          <mxGeometry x="511" y="204.5" width="60" height="30" as="geometry" />
        </mxCell>
        <mxCell id="iua9zefK4cCjFermVdLk-2" value="user_utterance" style="text;html=1;strokeColor=none;fillColor=none;align=center;verticalAlign=middle;whiteSpace=wrap;rounded=0;" parent="1" vertex="1">
          <mxGeometry x="366" y="208" width="85" height="23" as="geometry" />
        </mxCell>
        <mxCell id="iua9zefK4cCjFermVdLk-3" value="canonicalized_user_utterance" style="text;html=1;strokeColor=none;fillColor=none;align=center;verticalAlign=middle;whiteSpace=wrap;rounded=0;" parent="1" vertex="1">
          <mxGeometry x="367" y="239" width="85" height="23" as="geometry" />
        </mxCell>
        <mxCell id="iua9zefK4cCjFermVdLk-4" value="output text" style="text;html=1;strokeColor=none;fillColor=none;align=center;verticalAlign=middle;whiteSpace=wrap;rounded=0;" parent="1" vertex="1">
          <mxGeometry x="512" y="235.5" width="60" height="30" as="geometry" />
        </mxCell>
        <mxCell id="iua9zefK4cCjFermVdLk-5" value="tokens" style="text;html=1;strokeColor=none;fillColor=none;align=center;verticalAlign=middle;whiteSpace=wrap;rounded=0;" parent="1" vertex="1">
          <mxGeometry x="368" y="371" width="85" height="23" as="geometry" />
        </mxCell>
        <mxCell id="iua9zefK4cCjFermVdLk-6" value="tokens" style="text;html=1;strokeColor=none;fillColor=none;align=center;verticalAlign=middle;whiteSpace=wrap;rounded=0;" parent="1" vertex="1">
          <mxGeometry x="513" y="367.5" width="60" height="30" as="geometry" />
        </mxCell>
        <mxCell id="iua9zefK4cCjFermVdLk-7" value="nlu_result" style="text;html=1;strokeColor=none;fillColor=none;align=center;verticalAlign=middle;whiteSpace=wrap;rounded=0;" parent="1" vertex="1">
          <mxGeometry x="368" y="403" width="85" height="23" as="geometry" />
        </mxCell>
        <mxCell id="iua9zefK4cCjFermVdLk-8" value="nlu_result" style="text;html=1;strokeColor=none;fillColor=none;align=center;verticalAlign=middle;whiteSpace=wrap;rounded=0;" parent="1" vertex="1">
          <mxGeometry x="513" y="399.5" width="60" height="30" as="geometry" />
        </mxCell>
        <mxCell id="iua9zefK4cCjFermVdLk-9" value="nlu_result" style="text;html=1;strokeColor=none;fillColor=none;align=center;verticalAlign=middle;whiteSpace=wrap;rounded=0;" parent="1" vertex="1">
          <mxGeometry x="366" y="465.5" width="85" height="23" as="geometry" />
        </mxCell>
        <mxCell id="iua9zefK4cCjFermVdLk-10" value="nlu_result" style="text;html=1;strokeColor=none;fillColor=none;align=center;verticalAlign=middle;whiteSpace=wrap;rounded=0;" parent="1" vertex="1">
          <mxGeometry x="511" y="462" width="60" height="30" as="geometry" />
        </mxCell>
        <mxCell id="iua9zefK4cCjFermVdLk-11" value="" style="endArrow=classic;html=1;rounded=0;exitX=1.029;exitY=0.178;exitDx=0;exitDy=0;exitPerimeter=0;" parent="1" edge="1">
          <mxGeometry width="50" height="50" relative="1" as="geometry">
            <mxPoint x="321.03" y="516.1799999999998" as="sourcePoint" />
            <mxPoint x="590" y="516.0000000000001" as="targetPoint" />
          </mxGeometry>
        </mxCell>
        <mxCell id="iua9zefK4cCjFermVdLk-12" value="caonicalized_user_utterance" style="text;html=1;strokeColor=none;fillColor=none;align=center;verticalAlign=middle;whiteSpace=wrap;rounded=0;" parent="1" vertex="1">
          <mxGeometry x="366" y="493.5" width="85" height="23" as="geometry" />
        </mxCell>
        <mxCell id="iua9zefK4cCjFermVdLk-13" value="sentence" style="text;html=1;strokeColor=none;fillColor=none;align=center;verticalAlign=middle;whiteSpace=wrap;rounded=0;" parent="1" vertex="1">
          <mxGeometry x="511" y="490" width="60" height="30" as="geometry" />
        </mxCell>
        <mxCell id="iua9zefK4cCjFermVdLk-14" value="user_id" style="text;html=1;strokeColor=none;fillColor=none;align=center;verticalAlign=middle;whiteSpace=wrap;rounded=0;" parent="1" vertex="1">
          <mxGeometry x="366" y="518.5" width="85" height="23" as="geometry" />
        </mxCell>
        <mxCell id="iua9zefK4cCjFermVdLk-15" value="" style="endArrow=classic;html=1;rounded=0;exitX=1.029;exitY=0.178;exitDx=0;exitDy=0;exitPerimeter=0;" parent="1" edge="1">
          <mxGeometry width="50" height="50" relative="1" as="geometry">
            <mxPoint x="321.03" y="541.1799999999998" as="sourcePoint" />
            <mxPoint x="590" y="541.0000000000001" as="targetPoint" />
          </mxGeometry>
        </mxCell>
        <mxCell id="iua9zefK4cCjFermVdLk-16" value="user_id" style="text;html=1;strokeColor=none;fillColor=none;align=center;verticalAlign=middle;whiteSpace=wrap;rounded=0;" parent="1" vertex="1">
          <mxGeometry x="511" y="515" width="60" height="30" as="geometry" />
        </mxCell>
        <mxCell id="iua9zefK4cCjFermVdLk-17" value="system_utterance" style="text;html=1;strokeColor=none;fillColor=none;align=center;verticalAlign=middle;whiteSpace=wrap;rounded=0;" parent="1" vertex="1">
          <mxGeometry x="368" y="573" width="85" height="23" as="geometry" />
        </mxCell>
        <mxCell id="iua9zefK4cCjFermVdLk-18" value="output_text" style="text;html=1;strokeColor=none;fillColor=none;align=center;verticalAlign=middle;whiteSpace=wrap;rounded=0;" parent="1" vertex="1">
          <mxGeometry x="512" y="566" width="60" height="30" as="geometry" />
        </mxCell>
        <mxCell id="iua9zefK4cCjFermVdLk-19" value="" style="endArrow=classic;html=1;rounded=0;exitX=0;exitY=0.75;exitDx=0;exitDy=0;entryX=1;entryY=0.274;entryDx=0;entryDy=0;entryPerimeter=0;" parent="1" edge="1">
          <mxGeometry width="50" height="50" relative="1" as="geometry">
            <mxPoint x="591" y="595" as="sourcePoint" />
            <mxPoint x="319" y="594.9400000000002" as="targetPoint" />
          </mxGeometry>
        </mxCell>
        <mxCell id="iua9zefK4cCjFermVdLk-20" value="final" style="text;html=1;strokeColor=none;fillColor=none;align=center;verticalAlign=middle;whiteSpace=wrap;rounded=0;" parent="1" vertex="1">
          <mxGeometry x="369" y="601" width="85" height="23" as="geometry" />
        </mxCell>
        <mxCell id="iua9zefK4cCjFermVdLk-21" value="final" style="text;html=1;strokeColor=none;fillColor=none;align=center;verticalAlign=middle;whiteSpace=wrap;rounded=0;" parent="1" vertex="1">
          <mxGeometry x="514" y="597.5" width="60" height="30" as="geometry" />
        </mxCell>
        <mxCell id="iua9zefK4cCjFermVdLk-22" value="" style="endArrow=classic;html=1;rounded=0;exitX=0;exitY=0.75;exitDx=0;exitDy=0;entryX=1;entryY=0.274;entryDx=0;entryDy=0;entryPerimeter=0;" parent="1" edge="1">
          <mxGeometry width="50" height="50" relative="1" as="geometry">
            <mxPoint x="592" y="620" as="sourcePoint" />
            <mxPoint x="320" y="619.94" as="targetPoint" />
          </mxGeometry>
        </mxCell>
        <mxCell id="7yFsLuSHQwP80PSkCyWd-1" value="Sudachi&lt;br&gt;Tokenizer&lt;br&gt;ブロック" style="rounded=0;whiteSpace=wrap;html=1;" parent="1" vertex="1">
          <mxGeometry x="592" y="294" width="99" height="60" as="geometry" />
        </mxCell>
        <mxCell id="7yFsLuSHQwP80PSkCyWd-2" value="" style="endArrow=classic;html=1;rounded=0;exitX=0.996;exitY=0.141;exitDx=0;exitDy=0;exitPerimeter=0;entryX=0;entryY=0.25;entryDx=0;entryDy=0;" parent="1" target="7yFsLuSHQwP80PSkCyWd-1" edge="1">
          <mxGeometry width="50" height="50" relative="1" as="geometry">
            <mxPoint x="320.72" y="308.99" as="sourcePoint" />
            <mxPoint x="591" y="304" as="targetPoint" />
          </mxGeometry>
        </mxCell>
        <mxCell id="7yFsLuSHQwP80PSkCyWd-3" value="" style="endArrow=classic;html=1;rounded=0;exitX=0;exitY=0.75;exitDx=0;exitDy=0;entryX=0.986;entryY=0.22;entryDx=0;entryDy=0;entryPerimeter=0;" parent="1" source="7yFsLuSHQwP80PSkCyWd-1" edge="1">
          <mxGeometry width="50" height="50" relative="1" as="geometry">
            <mxPoint x="322.03" y="401.17999999999995" as="sourcePoint" />
            <mxPoint x="320.02" y="339.79999999999995" as="targetPoint" />
          </mxGeometry>
        </mxCell>
        <mxCell id="7yFsLuSHQwP80PSkCyWd-4" value="input_text" style="text;html=1;strokeColor=none;fillColor=none;align=center;verticalAlign=middle;whiteSpace=wrap;rounded=0;" parent="1" vertex="1">
          <mxGeometry x="512" y="281.5" width="60" height="30" as="geometry" />
        </mxCell>
        <mxCell id="7yFsLuSHQwP80PSkCyWd-5" value="canonicalized_user_utterance" style="text;html=1;strokeColor=none;fillColor=none;align=center;verticalAlign=middle;whiteSpace=wrap;rounded=0;" parent="1" vertex="1">
          <mxGeometry x="367" y="285" width="85" height="23" as="geometry" />
        </mxCell>
        <mxCell id="7yFsLuSHQwP80PSkCyWd-6" value="tokens" style="text;html=1;strokeColor=none;fillColor=none;align=center;verticalAlign=middle;whiteSpace=wrap;rounded=0;" parent="1" vertex="1">
          <mxGeometry x="368" y="316" width="85" height="23" as="geometry" />
        </mxCell>
        <mxCell id="7yFsLuSHQwP80PSkCyWd-7" value="tokens" style="text;html=1;strokeColor=none;fillColor=none;align=center;verticalAlign=middle;whiteSpace=wrap;rounded=0;" parent="1" vertex="1">
          <mxGeometry x="513" y="312.5" width="60" height="30" as="geometry" />
        </mxCell>
        <mxCell id="7yFsLuSHQwP80PSkCyWd-15" value="フロントエンドまたは他アプリ" style="rounded=0;whiteSpace=wrap;html=1;" parent="1" vertex="1">
          <mxGeometry x="140" y="340" width="70" height="100" as="geometry" />
        </mxCell>
        <mxCell id="7yFsLuSHQwP80PSkCyWd-17" value="ユーザ発話&lt;br&gt;ユーザID&lt;br&gt;セッションID&lt;br&gt;補助データ" style="text;html=1;strokeColor=none;fillColor=none;align=left;verticalAlign=middle;whiteSpace=wrap;rounded=0;" parent="1" vertex="1">
          <mxGeometry x="150" y="220" width="100" height="25" as="geometry" />
        </mxCell>
        <mxCell id="pVOCejccMrZnZ89GJfyK-1" value="" style="endArrow=classic;html=1;rounded=0;exitX=1.029;exitY=0.178;exitDx=0;exitDy=0;exitPerimeter=0;" parent="1" edge="1">
          <mxGeometry width="50" height="50" relative="1" as="geometry">
            <mxPoint x="321.03" y="566.1799999999998" as="sourcePoint" />
            <mxPoint x="590" y="566.0000000000001" as="targetPoint" />
          </mxGeometry>
        </mxCell>
        <mxCell id="pVOCejccMrZnZ89GJfyK-2" value="aux_data" style="text;html=1;strokeColor=none;fillColor=none;align=center;verticalAlign=middle;whiteSpace=wrap;rounded=0;" parent="1" vertex="1">
          <mxGeometry x="366" y="545" width="85" height="23" as="geometry" />
        </mxCell>
        <mxCell id="pVOCejccMrZnZ89GJfyK-3" value="aux_data" style="text;html=1;strokeColor=none;fillColor=none;align=center;verticalAlign=middle;whiteSpace=wrap;rounded=0;" parent="1" vertex="1">
          <mxGeometry x="498.5" y="545" width="85" height="23" as="geometry" />
        </mxCell>
        <mxCell id="pVOCejccMrZnZ89GJfyK-4" value="" style="endArrow=classic;html=1;rounded=0;exitX=0;exitY=0.75;exitDx=0;exitDy=0;entryX=1;entryY=0.274;entryDx=0;entryDy=0;entryPerimeter=0;" parent="1" edge="1">
          <mxGeometry width="50" height="50" relative="1" as="geometry">
            <mxPoint x="591" y="646.06" as="sourcePoint" />
            <mxPoint x="319" y="646" as="targetPoint" />
          </mxGeometry>
        </mxCell>
        <mxCell id="pVOCejccMrZnZ89GJfyK-5" value="aux_data" style="text;html=1;strokeColor=none;fillColor=none;align=center;verticalAlign=middle;whiteSpace=wrap;rounded=0;" parent="1" vertex="1">
          <mxGeometry x="501.5" y="624" width="85" height="23" as="geometry" />
        </mxCell>
        <mxCell id="pVOCejccMrZnZ89GJfyK-6" value="aux_data" style="text;html=1;strokeColor=none;fillColor=none;align=center;verticalAlign=middle;whiteSpace=wrap;rounded=0;" parent="1" vertex="1">
          <mxGeometry x="366" y="624" width="85" height="23" as="geometry" />
        </mxCell>
      </root>
    </mxGraphModel>
  </diagram>
</mxfile>
